<svg width="38" height="38" viewBox="0 0 38 38" fill="none" xmlns="http://www.w3.org/2000/svg">
<g filter="url(#filter0_d_72_1761)">
<rect x="4" width="30" height="30" rx="15" fill="#E1D4C9"/>
<path d="M21.7763 12.5625C21.7232 12.0663 21.4998 11.6799 21.1058 11.4034C20.7157 11.1269 20.2081 10.9886 19.5831 10.9886C19.1437 10.9886 18.7668 11.0549 18.4524 11.1875C18.138 11.3201 17.8975 11.5 17.7308 11.7273C17.5642 11.9545 17.4789 12.214 17.4751 12.5057C17.4751 12.7481 17.5301 12.9583 17.6399 13.1364C17.7536 13.3144 17.907 13.4659 18.1001 13.5909C18.2933 13.7121 18.5073 13.8144 18.7422 13.8977C18.977 13.9811 19.2138 14.0511 19.4524 14.108L20.5433 14.3807C20.9827 14.483 21.4051 14.6212 21.8104 14.7955C22.2195 14.9697 22.585 15.1894 22.907 15.4545C23.2327 15.7197 23.4903 16.0398 23.6797 16.4148C23.8691 16.7898 23.9638 17.2292 23.9638 17.733C23.9638 18.4148 23.7895 19.0152 23.4411 19.5341C23.0926 20.0492 22.5888 20.4527 21.9297 20.7443C21.2744 21.0322 20.4808 21.1761 19.549 21.1761C18.6437 21.1761 17.8577 21.036 17.1911 20.7557C16.5282 20.4754 16.0092 20.0663 15.6342 19.5284C15.263 18.9905 15.0623 18.3352 15.032 17.5625H17.1058C17.1361 17.9678 17.2611 18.3049 17.4808 18.5739C17.7005 18.8428 17.9865 19.0436 18.3388 19.1761C18.6948 19.3087 19.0926 19.375 19.532 19.375C19.9903 19.375 20.3918 19.3068 20.7365 19.1705C21.085 19.0303 21.3577 18.8371 21.5547 18.5909C21.7517 18.3409 21.852 18.0492 21.8558 17.7159C21.852 17.4129 21.763 17.1629 21.5888 16.9659C21.4145 16.7652 21.1702 16.5985 20.8558 16.4659C20.5452 16.3295 20.1816 16.2083 19.7649 16.1023L18.4411 15.7614C17.4827 15.5152 16.7251 15.142 16.1683 14.642C15.6153 14.1383 15.3388 13.4697 15.3388 12.6364C15.3388 11.9508 15.5244 11.3504 15.8956 10.8352C16.2706 10.3201 16.7801 9.92045 17.424 9.63636C18.0679 9.34848 18.7971 9.20455 19.6115 9.20455C20.4373 9.20455 21.1607 9.34848 21.782 9.63636C22.407 9.92045 22.8975 10.3163 23.2536 10.8239C23.6096 11.3277 23.7933 11.9072 23.8047 12.5625H21.7763Z" fill="#403F3D"/>
</g>
<defs>
<filter id="filter0_d_72_1761" x="0" y="0" width="38" height="38" filterUnits="userSpaceOnUse" color-interpolation-filters="sRGB">
<feFlood flood-opacity="0" result="BackgroundImageFix"/>
<feColorMatrix in="SourceAlpha" type="matrix" values="0 0 0 0 0 0 0 0 0 0 0 0 0 0 0 0 0 0 127 0" result="hardAlpha"/>
<feOffset dy="4"/>
<feGaussianBlur stdDeviation="2"/>
<feComposite in2="hardAlpha" operator="out"/>
<feColorMatrix type="matrix" values="0 0 0 0 0 0 0 0 0 0 0 0 0 0 0 0 0 0 0.25 0"/>
<feBlend mode="normal" in2="BackgroundImageFix" result="effect1_dropShadow_72_1761"/>
<feBlend mode="normal" in="SourceGraphic" in2="effect1_dropShadow_72_1761" result="shape"/>
</filter>
</defs>
</svg>
