<svg width="30" height="30" viewBox="0 0 30 30" fill="none" xmlns="http://www.w3.org/2000/svg">
<rect width="30" height="30" rx="15" fill="#C1B6AD"/>
<path d="M15.4993 21.1591C14.6811 21.1591 13.9538 21.0189 13.3175 20.7386C12.6849 20.4583 12.1849 20.0682 11.8175 19.5682C11.45 19.0682 11.255 18.4905 11.2322 17.8352H13.3686C13.3875 18.1496 13.4917 18.4242 13.6811 18.6591C13.8705 18.8902 14.1224 19.0701 14.4368 19.1989C14.7512 19.3277 15.1035 19.392 15.4936 19.392C15.9103 19.392 16.2796 19.3201 16.6016 19.1761C16.9235 19.0284 17.1754 18.8239 17.3572 18.5625C17.5391 18.3011 17.6281 18 17.6243 17.6591C17.6281 17.3068 17.5372 16.9962 17.3516 16.7273C17.166 16.4583 16.897 16.2481 16.5447 16.0966C16.1963 15.9451 15.7758 15.8693 15.2834 15.8693H14.255V14.2443H15.2834C15.6887 14.2443 16.0429 14.1742 16.3459 14.0341C16.6527 13.8939 16.8932 13.697 17.0675 13.4432C17.2417 13.1856 17.3269 12.8883 17.3232 12.5511C17.3269 12.2216 17.2531 11.9356 17.1016 11.6932C16.9538 11.447 16.7436 11.2557 16.4709 11.1193C16.2019 10.983 15.8857 10.9148 15.522 10.9148C15.166 10.9148 14.8364 10.9792 14.5334 11.108C14.2304 11.2367 13.986 11.4205 13.8004 11.6591C13.6148 11.8939 13.5163 12.1742 13.505 12.5H11.4766C11.4917 11.8485 11.6792 11.2765 12.0391 10.7841C12.4027 10.2879 12.8875 9.90151 13.4936 9.625C14.0997 9.3447 14.7796 9.20455 15.5334 9.20455C16.3099 9.20455 16.9841 9.35038 17.5561 9.64205C18.1319 9.92992 18.5769 10.3182 18.8913 10.8068C19.2057 11.2955 19.3629 11.8352 19.3629 12.4261C19.3667 13.0814 19.1735 13.6307 18.7834 14.0739C18.397 14.517 17.8894 14.8068 17.2607 14.9432V15.0341C18.0788 15.1477 18.7057 15.4508 19.1413 15.9432C19.5807 16.4318 19.7985 17.0398 19.7947 17.767C19.7947 18.4186 19.6091 19.0019 19.2379 19.517C18.8705 20.0284 18.3629 20.4299 17.7152 20.7216C17.0713 21.0133 16.3326 21.1591 15.4993 21.1591Z" fill="#403F3D"/>
</svg>
