<svg width="30" height="30" viewBox="0 0 30 30" fill="none" xmlns="http://www.w3.org/2000/svg">
<rect width="30" height="30" rx="15" fill="#C1B6AD"/>
<path d="M11.0653 21V19.4773L15.1051 15.517C15.4915 15.1269 15.8134 14.7803 16.071 14.4773C16.3286 14.1742 16.5218 13.8807 16.6506 13.5966C16.7794 13.3125 16.8438 13.0095 16.8438 12.6875C16.8438 12.3201 16.7604 12.0057 16.5938 11.7443C16.4271 11.4792 16.1979 11.2746 15.9062 11.1307C15.6146 10.9867 15.2831 10.9148 14.9119 10.9148C14.5294 10.9148 14.1941 10.9943 13.9062 11.1534C13.6184 11.3087 13.3949 11.5303 13.2358 11.8182C13.0805 12.1061 13.0028 12.4489 13.0028 12.8466H10.9972C10.9972 12.108 11.1657 11.4659 11.5028 10.9205C11.84 10.375 12.304 9.95265 12.8949 9.65341C13.4896 9.35417 14.1714 9.20455 14.9403 9.20455C15.7206 9.20455 16.4063 9.35038 16.9972 9.64205C17.5881 9.93371 18.0464 10.3333 18.3722 10.8409C18.7017 11.3485 18.8665 11.928 18.8665 12.5795C18.8665 13.0152 18.7831 13.4432 18.6165 13.8636C18.4498 14.2841 18.1563 14.75 17.7358 15.2614C17.3191 15.7727 16.7339 16.392 15.9801 17.1193L13.9744 19.1591V19.2386H19.0426V21H11.0653Z" fill="#403F3D"/>
</svg>
